<svg width="41" height="41" viewBox="0 0 41 41" fill="none" xmlns="http://www.w3.org/2000/svg">
<g clip-path="url(#clip0_1332_6663)">
<path d="M31.2553 12.1541C31.9204 11.489 31.9204 10.4105 31.2553 9.74539C30.5901 9.08023 29.5117 9.08023 28.8465 9.74539L20.5013 18.0906L12.1561 9.74539C11.4909 9.08023 10.4125 9.08023 9.74734 9.74539C9.08219 10.4105 9.08219 11.489 9.74734 12.1541L18.0926 20.4993L9.74734 28.8446C9.08219 29.5097 9.08219 30.5881 9.74734 31.2533C10.4125 31.9185 11.4909 31.9185 12.1561 31.2533L20.5013 22.9081L28.8465 31.2533C29.5117 31.9185 30.5901 31.9185 31.2553 31.2533C31.9204 30.5881 31.9204 29.5097 31.2553 28.8446L22.9101 20.4993L31.2553 12.1541Z" fill="#F8F8F9"/>
</g>
<defs>
<clipPath id="clip0_1332_6663">
<rect width="41" height="41" fill="white"/>
</clipPath>
</defs>
</svg>
