<svg width="40" height="40" viewBox="0 0 40 40" fill="none" xmlns="http://www.w3.org/2000/svg">
<g clip-path="url(#clip0_1332_5595)">
<path d="M8.33203 28.3333C8.33203 29.2538 9.07822 30 9.9987 30H29.582C30.5025 30 31.2487 29.2538 31.2487 28.3333V28.3333C31.2487 27.4129 30.5025 26.6667 29.582 26.6667H9.9987C9.07822 26.6667 8.33203 27.4129 8.33203 28.3333V28.3333ZM8.33203 20C8.33203 20.9205 9.07822 21.6667 9.9987 21.6667H29.582C30.5025 21.6667 31.2487 20.9205 31.2487 20V20C31.2487 19.0795 30.5025 18.3333 29.582 18.3333H9.9987C9.07822 18.3333 8.33203 19.0795 8.33203 20V20ZM9.9987 10C9.07822 10 8.33203 10.7462 8.33203 11.6667V11.6667C8.33203 12.5871 9.07822 13.3333 9.9987 13.3333H29.582C30.5025 13.3333 31.2487 12.5871 31.2487 11.6667V11.6667C31.2487 10.7462 30.5025 10 29.582 10H9.9987Z" fill="white"/>
</g>
<defs>
<clipPath id="clip0_1332_5595">
<rect width="40" height="40" fill="white"/>
</clipPath>
</defs>
</svg>
