<svg width="32" height="32" viewBox="0 0 32 32" fill="none" xmlns="http://www.w3.org/2000/svg">
<g clip-path="url(#clip0_1332_10981)">
<path d="M28.4726 8.64953C28.9484 8.08526 28.8756 7.24194 28.3102 6.76752L24.2209 3.33606C23.6574 2.86321 22.8175 2.93568 22.3433 3.49808V3.49808C21.8676 4.06234 21.9403 4.90566 22.5057 5.38009L26.595 8.81154C27.1585 9.2844 27.9984 9.21192 28.4726 8.64953V8.64953ZM9.48982 5.37447C10.0523 4.90264 10.1264 4.06435 9.65527 3.50123V3.50123C9.18367 2.93751 8.34434 2.86293 7.78072 3.33465L3.69424 6.75486C3.12805 7.22874 3.0547 8.07248 3.53062 8.63695V8.63695C4.00448 9.19896 4.84379 9.27147 5.407 8.79906L9.48982 5.37447ZM16.668 11.6671C16.668 11.1149 16.2203 10.6671 15.668 10.6671V10.6671C15.1157 10.6671 14.668 11.1149 14.668 11.6671V18.6671L20.1859 21.9779C20.6372 22.2487 21.2224 22.1046 21.4963 21.6553V21.6553C21.7742 21.1996 21.626 20.6048 21.1668 20.3327L16.668 17.6671V11.6671ZM16.0013 5.3338C9.37464 5.3338 4.0013 10.7071 4.0013 17.3338C4.0013 23.9605 9.3613 29.3338 16.0013 29.3338C22.628 29.3338 28.0013 23.9605 28.0013 17.3338C28.0013 10.7071 22.628 5.3338 16.0013 5.3338ZM16.0013 26.6671C10.8413 26.6671 6.66797 22.4938 6.66797 17.3338C6.66797 12.1738 10.8413 8.00047 16.0013 8.00047C21.1613 8.00047 25.3346 12.1738 25.3346 17.3338C25.3346 22.4938 21.1613 26.6671 16.0013 26.6671Z" fill="white"/>
</g>
<defs>
<clipPath id="clip0_1332_10981">
<rect width="32" height="32" fill="white"/>
</clipPath>
</defs>
</svg>
