<svg width="32" height="32" viewBox="0 0 32 32" fill="none" xmlns="http://www.w3.org/2000/svg">
<g clip-path="url(#clip0_1332_10999)">
<path d="M16.0013 30.3346C8.09464 30.3346 1.66797 23.908 1.66797 16.0013C1.66797 8.09464 8.09464 1.66797 16.0013 1.66797C23.908 1.66797 30.3346 8.09464 30.3346 16.0013C30.3346 23.908 23.908 30.3346 16.0013 30.3346ZM16.0013 3.66797C9.2013 3.66797 3.66797 9.2013 3.66797 16.0013C3.66797 22.8013 9.2013 28.3346 16.0013 28.3346C22.8013 28.3346 28.3346 22.8013 28.3346 16.0013C28.3346 9.2013 22.8013 3.66797 16.0013 3.66797Z" fill="white"/>
<path d="M16.0013 17.3346C15.2546 17.3346 14.668 16.7346 14.668 16.0013C14.668 15.268 15.268 14.668 16.0013 14.668C16.7346 14.668 17.3346 15.268 17.3346 16.0013C17.3346 16.7346 16.748 17.3346 16.0013 17.3346Z" fill="white"/>
<path d="M21.3333 17.3346C20.5867 17.3346 20 16.7346 20 16.0013C20 15.268 20.6 14.668 21.3333 14.668C22.0667 14.668 22.6667 15.268 22.6667 16.0013C22.6667 16.7346 22.08 17.3346 21.3333 17.3346Z" fill="white"/>
<path d="M10.6654 17.3346C9.9187 17.3346 9.33203 16.7346 9.33203 16.0013C9.33203 15.268 9.93203 14.668 10.6654 14.668C11.3987 14.668 11.9987 15.268 11.9987 16.0013C11.9987 16.7346 11.412 17.3346 10.6654 17.3346Z" fill="white"/>
</g>
<defs>
<clipPath id="clip0_1332_10999">
<rect width="32" height="32" fill="white"/>
</clipPath>
</defs>
</svg>
