<svg width="32" height="32" viewBox="0 0 32 32" fill="none" xmlns="http://www.w3.org/2000/svg">
<path d="M26.668 4H5.33464C3.86797 4 2.66797 5.2 2.66797 6.66667V21.3333C2.66797 22.8 3.86797 24 5.33464 24H7.72516C8.3191 24 8.61654 24.7181 8.19656 25.1381V25.1381C8.07154 25.2631 8.0013 25.4327 8.0013 25.6095V26.1144C8.0013 27.1558 8.84552 28 9.88692 28H22.1157C23.1571 28 24.0013 27.1558 24.0013 26.1144V25.6095C24.0013 25.4327 23.9311 25.2631 23.806 25.1381V25.1381C23.3861 24.7181 23.6835 24 24.2774 24H26.668C28.1346 24 29.3346 22.8 29.3346 21.3333V6.66667C29.3346 5.2 28.1346 4 26.668 4ZM26.668 17.3333C26.668 19.5425 24.8771 21.3333 22.668 21.3333H9.33464C7.1255 21.3333 5.33464 19.5425 5.33464 17.3333V10.6667C5.33464 8.45753 7.1255 6.66667 9.33464 6.66667H22.668C24.8771 6.66667 26.668 8.45753 26.668 10.6667V17.3333Z" fill="white"/>
</svg>
