<svg width="20" height="21" viewBox="0 0 20 21" fill="none" xmlns="http://www.w3.org/2000/svg">
<g clip-path="url(#clip0_1332_7738)">
<path d="M9.66667 14.8333C10.5833 14.8333 11.3333 14.0833 11.3333 13.1667C11.3333 12.25 10.5833 11.5 9.66667 11.5C8.75 11.5 8 12.25 8 13.1667C8 14.0833 8.75 14.8333 9.66667 14.8333ZM14.6667 7.33333H13.8333V5.66667C13.8333 3.36667 11.9667 1.5 9.66667 1.5C7.36667 1.5 5.5 3.36667 5.5 5.66667V7.33333H4.66667C3.75 7.33333 3 8.08333 3 9V17.3333C3 18.25 3.75 19 4.66667 19H14.6667C15.5833 19 16.3333 18.25 16.3333 17.3333V9C16.3333 8.08333 15.5833 7.33333 14.6667 7.33333ZM7.08333 5.66667C7.08333 4.24167 8.24167 3.08333 9.66667 3.08333C11.0917 3.08333 12.25 4.24167 12.25 5.66667V7.33333H7.08333V5.66667ZM14.6667 17.3333H4.66667V9H14.6667V17.3333Z" fill="#F8F8F9"/>
</g>
<defs>
<clipPath id="clip0_1332_7738">
<rect width="20" height="20" fill="white" transform="translate(0 0.5)"/>
</clipPath>
</defs>
</svg>
