<svg width="40" height="40" viewBox="0 0 40 40" fill="none" xmlns="http://www.w3.org/2000/svg">
<g clip-path="url(#clip0_1332_10556)">
<path d="M30.4904 11.857C31.1393 11.2081 31.1393 10.156 30.4904 9.50703C29.8414 8.8581 28.7893 8.8581 28.1404 9.50703L19.9987 17.6487L11.857 9.50703C11.2081 8.8581 10.156 8.8581 9.50703 9.50703C8.8581 10.156 8.8581 11.2081 9.50703 11.857L17.6487 19.9987L9.50703 28.1404C8.8581 28.7893 8.8581 29.8414 9.50703 30.4904C10.156 31.1393 11.2081 31.1393 11.857 30.4904L19.9987 22.3487L28.1404 30.4904C28.7893 31.1393 29.8414 31.1393 30.4904 30.4904C31.1393 29.8414 31.1393 28.7893 30.4904 28.1404L22.3487 19.9987L30.4904 11.857Z" fill="black"/>
</g>
<defs>
<clipPath id="clip0_1332_10556">
<rect width="40" height="40" fill="white"/>
</clipPath>
</defs>
</svg>
