<svg width="22" height="26" viewBox="0 0 22 26" fill="none" xmlns="http://www.w3.org/2000/svg">
<path d="M20.2362 10.8931C20.8794 10.2672 20.4362 9.17647 19.5388 9.17647H15.7143V2C15.7143 0.895429 14.8189 0 13.7143 0H8.28572C7.18115 0 6.28571 0.89543 6.28571 2V9.17647H2.46124C1.56379 9.17647 1.12065 10.2672 1.76378 10.8931L9.60508 18.5247C10.3815 19.2804 11.6185 19.2804 12.3949 18.5247L20.2362 10.8931ZM1.52941 22.9412C0.684741 22.9412 0 23.6259 0 24.4706C0 25.3153 0.684741 26 1.52941 26H20.4706C21.3153 26 22 25.3153 22 24.4706C22 23.6259 21.3153 22.9412 20.4706 22.9412H1.52941Z" fill="white"/>
</svg>
