<svg width="23" height="24" viewBox="0 0 23 24" fill="none" xmlns="http://www.w3.org/2000/svg">
<path d="M20.25 0.75H2.75C1.3625 0.75 0.25 1.875 0.25 3.25V20.75C0.25 22.125 1.3625 23.25 2.75 23.25H20.25C21.6375 23.25 22.75 22.125 22.75 20.75V3.25C22.75 1.875 21.6375 0.75 20.25 0.75ZM9 18.25L3.63186 12.8819C3.14482 12.3948 3.14482 11.6052 3.63186 11.1181C4.11842 10.6316 4.90712 10.631 5.39436 11.1169L9 14.7125L17.6 6.11251C18.0896 5.62286 18.8839 5.62426 19.3719 6.11564C19.8573 6.60456 19.856 7.39405 19.3687 7.88126L9 18.25Z" fill="#218ECE"/>
</svg>
