<svg width="147" height="147" viewBox="0 0 147 147" fill="none" xmlns="http://www.w3.org/2000/svg">
<g clip-path="url(#clip0_522_18436)">
<path d="M132.166 38.1003C133.592 36.4085 133.374 33.8802 131.679 32.4578L109.632 13.9577C107.942 12.54 105.424 12.7573 104.003 14.4434L101.258 17.6985C99.8318 19.3902 100.05 21.9186 101.745 23.341L123.792 41.8411C125.481 43.2588 127.999 43.0415 129.421 41.3553L132.166 38.1003ZM45.2043 23.3311C46.8953 21.9127 47.1179 19.3926 45.7016 17.6997L42.9922 14.4611C41.5745 12.7665 39.0513 12.5423 37.3569 13.9603L15.3285 32.3972C13.6301 33.8187 13.4101 36.3497 14.8377 38.043L17.5794 41.2947C19.0009 42.9806 21.5186 43.1981 23.2081 41.781L45.2043 23.3311ZM76.5625 52C76.5625 50.3432 75.2194 49 73.5625 49H70.375C68.7181 49 67.375 50.3432 67.375 52V85.75L93.9146 101.674C95.3281 102.522 97.1612 102.071 98.0195 100.663L99.4808 98.2666C100.351 96.8393 99.8868 94.9759 98.4486 94.1238L76.5625 81.1563V52ZM73.5 24.5C43.0588 24.5 18.375 49.1838 18.375 79.625C18.375 110.066 42.9975 134.75 73.5 134.75C103.941 134.75 128.625 110.066 128.625 79.625C128.625 49.1838 103.941 24.5 73.5 24.5ZM73.5 122.5C49.7963 122.5 30.625 103.329 30.625 79.625C30.625 55.9213 49.7963 36.75 73.5 36.75C97.2037 36.75 116.375 55.9213 116.375 79.625C116.375 103.329 97.2037 122.5 73.5 122.5Z" fill="#B1B1B1"/>
</g>
<defs>
<clipPath id="clip0_522_18436">
<rect width="147" height="147" fill="white"/>
</clipPath>
</defs>
</svg>
