<svg width="32" height="32" viewBox="0 0 32 32" fill="none" xmlns="http://www.w3.org/2000/svg">
<g clip-path="url(#clip0_1332_12453)">
<path d="M29.332 9.66797H21.332C20.7854 9.66797 20.332 9.21464 20.332 8.66797C20.332 8.1213 20.7854 7.66797 21.332 7.66797H29.332C29.8787 7.66797 30.332 8.1213 30.332 8.66797C30.332 9.21464 29.8787 9.66797 29.332 9.66797Z" fill="#434343"/>
<path d="M8.0013 9.66797H2.66797C2.1213 9.66797 1.66797 9.21464 1.66797 8.66797C1.66797 8.1213 2.1213 7.66797 2.66797 7.66797H8.0013C8.54797 7.66797 9.0013 8.1213 9.0013 8.66797C9.0013 9.21464 8.54797 9.66797 8.0013 9.66797Z" fill="#434343"/>
<path d="M13.3346 14.3333C10.2146 14.3333 7.66797 11.7867 7.66797 8.66667C7.66797 5.54667 10.2146 3 13.3346 3C16.4546 3 19.0013 5.54667 19.0013 8.66667C19.0013 11.7867 16.4546 14.3333 13.3346 14.3333ZM13.3346 5C11.308 5 9.66797 6.64 9.66797 8.66667C9.66797 10.6933 11.308 12.3333 13.3346 12.3333C15.3613 12.3333 17.0013 10.6933 17.0013 8.66667C17.0013 6.64 15.3613 5 13.3346 5Z" fill="#434343"/>
<path d="M29.3333 24.332H24C23.4533 24.332 23 23.8787 23 23.332C23 22.7854 23.4533 22.332 24 22.332H29.3333C29.88 22.332 30.3333 22.7854 30.3333 23.332C30.3333 23.8787 29.88 24.332 29.3333 24.332Z" fill="#434343"/>
<path d="M10.668 24.332H2.66797C2.1213 24.332 1.66797 23.8787 1.66797 23.332C1.66797 22.7854 2.1213 22.332 2.66797 22.332H10.668C11.2146 22.332 11.668 22.7854 11.668 23.332C11.668 23.8787 11.2146 24.332 10.668 24.332Z" fill="#434343"/>
<path d="M18.6667 29.0013C15.5467 29.0013 13 26.4546 13 23.3346C13 20.2146 15.5467 17.668 18.6667 17.668C21.7867 17.668 24.3333 20.2146 24.3333 23.3346C24.3333 26.4546 21.7867 29.0013 18.6667 29.0013ZM18.6667 19.668C16.64 19.668 15 21.308 15 23.3346C15 25.3613 16.64 27.0013 18.6667 27.0013C20.6933 27.0013 22.3333 25.3613 22.3333 23.3346C22.3333 21.308 20.6933 19.668 18.6667 19.668Z" fill="#434343"/>
</g>
<defs>
<clipPath id="clip0_1332_12453">
<rect width="32" height="32" fill="white"/>
</clipPath>
</defs>
</svg>
