<svg width="32" height="33" viewBox="0 0 32 33" fill="none" xmlns="http://www.w3.org/2000/svg">
<g clip-path="url(#clip0_1332_11237)">
<path d="M15.9987 6.5C9.33203 6.5 3.6387 10.6467 1.33203 16.5C3.6387 22.3533 9.33203 26.5 15.9987 26.5C22.6654 26.5 28.3587 22.3533 30.6654 16.5C28.3587 10.6467 22.6654 6.5 15.9987 6.5ZM15.9987 23.1667C12.3187 23.1667 9.33203 20.18 9.33203 16.5C9.33203 12.82 12.3187 9.83333 15.9987 9.83333C19.6787 9.83333 22.6654 12.82 22.6654 16.5C22.6654 20.18 19.6787 23.1667 15.9987 23.1667ZM15.9987 12.5C13.7854 12.5 11.9987 14.2867 11.9987 16.5C11.9987 18.7133 13.7854 20.5 15.9987 20.5C18.212 20.5 19.9987 18.7133 19.9987 16.5C19.9987 14.2867 18.212 12.5 15.9987 12.5Z" fill="#B1B1B1"/>
</g>
<defs>
<clipPath id="clip0_1332_11237">
<rect width="32" height="32" fill="white" transform="translate(0 0.5)"/>
</clipPath>
</defs>
</svg>
